<?xml version="1.0" encoding="UTF-8" standalone="no"?>
<!-- Created with Inkscape (http://www.inkscape.org/) -->
<svg xmlns:dc="http://purl.org/dc/elements/1.1/" xmlns:cc="http://creativecommons.org/ns#" xmlns:rdf="http://www.w3.org/1999/02/22-rdf-syntax-ns#" xmlns:svg="http://www.w3.org/2000/svg" xmlns="http://www.w3.org/2000/svg" xmlns:sodipodi="http://sodipodi.sourceforge.net/DTD/sodipodi-0.dtd" xmlns:inkscape="http://www.inkscape.org/namespaces/inkscape" version="1.0" width="472" height="150" id="svg2" style="display: inline;" sodipodi:version="0.32" inkscape:version="0.46" sodipodi:docname="bca-A.svg" inkscape:output_extension="org.inkscape.output.svg.inkscape">
  <metadata id="metadata22">
    <rdf:RDF>
      <cc:Work rdf:about="">
        <dc:format>image/svg+xml</dc:format>
        <dc:type rdf:resource="http://purl.org/dc/dcmitype/StillImage"/>
      </cc:Work>
    </rdf:RDF>
  </metadata>
  <sodipodi:namedview inkscape:window-height="667" inkscape:window-width="640" inkscape:pageshadow="2" inkscape:pageopacity="0.0" guidetolerance="10.0" gridtolerance="10.0" objecttolerance="10.0" borderopacity="1.0" bordercolor="#666666" pagecolor="#ffffff" id="base" showgrid="false" inkscape:zoom="1.1525424" inkscape:cx="236" inkscape:cy="75" inkscape:window-x="44" inkscape:window-y="58" inkscape:current-layer="svg2"/>
  <defs id="defs4">
    <inkscape:perspective sodipodi:type="inkscape:persp3d" inkscape:vp_x="0 : 75 : 1" inkscape:vp_y="0 : 1000 : 0" inkscape:vp_z="472 : 75 : 1" inkscape:persp3d-origin="236 : 50 : 1" id="perspective24"/>
  </defs>
  <g id="layer2" style="display: inline;">
    <path d="M 181.23442,50.417732 L 199.02061,15.542844 C 199.02061,15.542844 205.23995,15.542844 247.14796,15.542844 C 288.70721,15.542844 284.3857,58.787702 255.16918,72.040161 C 283.14747,86.180824 264.8388,134.11746 224.13053,133.76872 C 185.51474,133.76872 168.33071,133.76872 168.33071,133.76872 L 189.60439,50.417732 L 181.23442,50.417732 z M 220.64304,63.321438 L 224.13053,46.930242 C 224.13053,46.930242 232.5005,46.930242 237.38299,46.930242 C 250.18634,50.068982 239.12673,64.018935 232.5005,63.321438 C 228.66426,63.321438 220.64304,63.321438 220.64304,63.321438 z M 210.18057,103.42756 L 215.4118,84.595123 C 215.4118,84.595123 224.13053,84.595123 228.66426,84.595123 C 244.35797,87.733865 234.59299,104.12507 224.13053,103.42756 C 220.64304,103.42756 210.18057,103.42756 210.18057,103.42756 z" id="path2453" style="fill: rgb(0, 95, 175); fill-opacity: 1; fill-rule: evenodd; stroke: rgb(0, 95, 175); stroke-width: 1px; stroke-linecap: butt; stroke-linejoin: miter; stroke-opacity: 1;"/>
    <path d="M 369.41812,60.083697 L 387.68941,27.829081 L 362.96719,14.933535 L 359.74173,18.914328 C 346.4051,11.854661 276.56614,21.602467 272.19348,90.495192 C 274.80738,148.28827 339.56591,137.89326 345.91832,134.22569 L 363.72883,97.406896 C 346.28395,108.89641 310.56598,114.41183 309.0559,79.897246 C 312.18857,51.433387 345.79175,40.805196 369.41812,60.083697 z" id="path3262" style="fill: rgb(0, 95, 175); fill-opacity: 1; fill-rule: evenodd; stroke: rgb(0, 95, 175); stroke-width: 1px; stroke-linecap: butt; stroke-linejoin: miter; stroke-opacity: 1;"/>
    <path d="M 386.56865,49.374135 L 395.74005,49.374135 L 353.41013,133.76872 L 394.38332,133.76872 L 402.79503,113.41171 L 427.94591,113.41171 L 428.57287,133.76872 L 466.28992,133.76872 L 460.59166,15.542844 L 404.42311,15.542844 L 386.56865,49.374135 z M 428.57287,86.005797 L 427.94591,53.17297 L 414.19155,86.005797 L 428.57287,86.005797 z" id="path3309" style="fill: rgb(0, 95, 175); fill-opacity: 1; fill-rule: evenodd; stroke: rgb(0, 95, 175); stroke-width: 1px; stroke-linecap: butt; stroke-linejoin: miter; stroke-opacity: 1;"/>
    <path d="M 133.55007,19.777503 C 152.33479,60.698263 149.70987,99.937759 133.81541,132.54868 C 99.995415,149.53439 58.393919,150.78761 20.778894,131.75265 C 2.6125726,93.342911 3.1729365,49.976576 20.778894,18.981471 C 54.920887,2.0292511 97.716017,1.5217338 133.55007,19.777503 z M 135.67755,17.136735 C 155.21347,59.692249 152.48359,100.49933 135.9535,134.41304 C 100.78102,152.07732 57.515869,153.3806 18.3966,133.5852 C -0.49620078,93.641031 0.086572285,48.542239 18.3966,16.308902 C 53.903945,-1.3205463 98.410472,-1.8483386 135.67755,17.136735 z" id="path3324" style="fill: rgb(0, 95, 175); fill-opacity: 1; fill-rule: evenodd; stroke: rgb(0, 95, 175); stroke-width: 1px; stroke-linecap: butt; stroke-linejoin: miter; stroke-opacity: 1;"/>
    <path d="M 65.586233,113.41171 L 68.136676,113.41171 C 68.136676,113.41171 69.688285,103.22396 58.877026,95.479339 C 52.0608,90.59655 32.425106,89.551831 29.291488,83.172615 C 22.96449,92.62189 28.107848,103.54542 35.192246,106.06443 C 46.477335,110.20783 60.567077,98.025438 65.586233,113.41171 z" id="path3357" style="fill: rgb(0, 95, 175); fill-opacity: 1; fill-rule: evenodd; stroke: rgb(0, 95, 175); stroke-width: 1px; stroke-linecap: butt; stroke-linejoin: miter; stroke-opacity: 1;"/>
    <path d="M 84.224072,113.41171 L 86.578326,113.41171 C 93.705524,96.803152 106.93259,114.01834 120.72779,104.1246 C 126.27812,100.14398 128.18927,92.380544 122.87307,83.172615 C 119.79881,92.460951 86.164327,86.647089 84.224072,113.41171 z" id="path3359" style="fill: rgb(0, 95, 175); fill-opacity: 1; fill-rule: evenodd; stroke: rgb(0, 95, 175); stroke-width: 1px; stroke-linecap: butt; stroke-linejoin: miter; stroke-opacity: 1;"/>
    <path d="M 74.807059,113.41171 L 77.749877,113.41171 C 77.753657,102.23396 75.679843,83.873094 81.127147,69.857767 C 87.795685,56.783762 93.152638,58.669861 98.509481,45.545208 C 101.62372,32.418254 96.01273,18.319424 77.749877,16.444792 C 56.684378,17.577704 50.414545,32.291138 54.097934,45.888478 C 56.425108,54.479293 66.925018,59.263387 71.074028,69.898666 C 76.550502,83.92699 74.546053,102.98965 74.807059,113.41171 z" id="path3365" style="fill: rgb(0, 95, 175); fill-opacity: 1; fill-rule: evenodd; stroke: rgb(0, 95, 175); stroke-width: 1px; stroke-linecap: butt; stroke-linejoin: miter; stroke-opacity: 1;"/>
    <path d="M 70.528274,113.40992 C 69.981567,107.30577 68.521995,102.1761 65.392075,98.250601 C 51.040292,80.250808 21.699695,93.801665 29.239191,63.213018 C 33.159259,47.574656 77.871697,38.351885 72.737797,113.38485 L 70.528274,113.40992 z" id="path3371" style="fill: rgb(0, 95, 175); fill-opacity: 1; fill-rule: evenodd; stroke: rgb(0, 95, 175); stroke-width: 1px; stroke-linecap: butt; stroke-linejoin: miter; stroke-opacity: 1;"/>
    <path d="M 79.71382,113.52065 L 82.333943,113.52065 C 82.37925,104.77939 85.419796,99.013838 91.199312,93.987211 C 106.4892,82.876855 130.35868,90.307617 122.94585,63.21429 C 117.53528,49.712004 93.137796,44.407114 82.476075,74.427256 C 79.272581,83.447315 79.556612,95.914594 79.71382,113.52065 z" id="path3231" style="fill: rgb(0, 95, 175); fill-opacity: 1; fill-rule: evenodd; stroke: rgb(0, 95, 175); stroke-width: 1px; stroke-linecap: butt; stroke-linejoin: miter; stroke-opacity: 1;"/>
    <path d="M 41.591028,125.96624 L 45.128193,127.1453 L 43.425114,133.04057 L 41.984046,132.64755 L 42.115052,131.73051 C 40.351568,132.53407 37.122451,131.93192 36.7438,129.89643 C 36.364358,128.26147 37.512584,123.30452 39.363923,120.98801 C 41.163098,118.73677 45.54525,120.93783 45.652218,122.29807 C 45.758874,123.65433 45.223612,125.1802 45.223612,125.1802 L 43.573914,124.86859 C 43.573914,124.86859 43.674144,124.3783 43.818132,123.60813 C 43.97107,122.79008 41.838594,121.97116 41.198009,122.82209 C 40.601481,123.6145 39.406151,126.38025 39.232917,128.58636 C 39.049461,130.92265 41.293436,130.43051 41.85304,130.15844 C 42.304308,129.93904 42.639076,128.06234 42.639076,128.06234 L 41.067003,127.53831 L 41.591028,125.96624 z" id="path3233" style="fill: rgb(0, 95, 175); fill-opacity: 1; fill-rule: evenodd; stroke: rgb(0, 95, 175); stroke-width: 1px; stroke-linecap: butt; stroke-linejoin: miter; stroke-opacity: 1;"/>
    <path d="M 47.41143,133.97765 L 49.950863,122.5502 C 56.156119,123.22605 56.699579,124.95436 56.822272,126.80748 C 56.577679,128.24677 56.193806,129.25003 54.955038,129.4963 C 56.405873,130.81239 54.972972,133.57034 54.955038,135.62081 L 52.789052,135.09799 C 53.04315,133.30756 55.166118,129.6665 50.969575,129.6665 L 49.801485,134.42578 L 47.41143,133.97765 z M 51.444647,127.70376 L 52.11685,125.01495 C 54.596375,125.0399 54.555307,126.03432 54.506902,127.03156 C 53.790269,128.62415 52.524995,127.74787 51.444647,127.70376 z" id="path3234" style="fill: rgb(0, 95, 175); fill-opacity: 1; fill-rule: evenodd; stroke: rgb(0, 95, 175); stroke-width: 1px; stroke-linecap: butt; stroke-linejoin: miter; stroke-opacity: 1;"/>
    <path d="M 60.492096,124.39567 L 62.74416,124.74756 L 61.758881,132.77053 C 61.882971,135.4256 64.546127,135.26665 65.066601,133.33355 L 66.122253,124.95869 L 68.022431,125.09944 L 67.177909,134.31882 C 66.325492,138.37843 60.270529,137.83535 59.506818,133.96694 L 60.492096,124.39567 z" id="path3243" style="fill: rgb(0, 95, 175); fill-opacity: 1; fill-rule: evenodd; stroke: rgb(0, 95, 175); stroke-width: 1px; stroke-linecap: butt; stroke-linejoin: miter; stroke-opacity: 1;"/>
    <path d="M 71.189395,137.41541 L 71.822788,125.38095 C 76.215129,125.47173 78.733569,126.07964 78.649352,129.18131 C 78.388386,133.42056 74.956278,132.46744 73.37108,132.41865 L 72.948817,137.48579 L 71.189395,137.41541 z M 74.004473,127.56264 L 73.58221,130.51847 C 74.668113,130.41167 76.005007,131.34869 76.538039,129.25168 C 76.497544,127.61677 75.254427,127.52725 74.004473,127.56264 z" id="path3235" style="fill: rgb(0, 95, 175); fill-opacity: 1; fill-rule: evenodd; stroke: rgb(0, 95, 175); stroke-width: 1px; stroke-linecap: butt; stroke-linejoin: miter; stroke-opacity: 1;"/>
    <path d="M 88.361373,136.99315 L 86.461194,125.38095 C 87.44371,125.22027 92.25828,123.45649 93.42851,126.64774 C 94.005957,128.59715 93.407389,129.29725 92.724744,130.16659 C 94.018405,130.58306 94.456004,131.59089 94.765673,132.70015 C 94.86363,134.45262 94.269217,135.61725 93.147002,136.00787 L 88.361373,136.99315 z M 88.854009,126.64774 L 89.417024,129.67395 C 90.79776,129.36731 91.508213,128.54959 91.38758,127.49226 C 91.206922,126.68764 90.53445,126.09333 88.854009,126.64774 z M 89.90966,131.92601 L 90.402302,135.02259 C 91.555207,135.05152 92.607128,134.35858 92.30248,132.91129 C 92.009488,131.51938 90.839736,131.73973 89.90966,131.92601 z" id="path3240" style="fill: rgb(0, 95, 175); fill-opacity: 1; fill-rule: evenodd; stroke: rgb(0, 95, 175); stroke-width: 1px; stroke-linecap: butt; stroke-linejoin: miter; stroke-opacity: 1;"/>
    <path d="M 102.0145,126.29585 L 104.05544,125.94397 C 103.62874,124.45914 103.90692,122.34051 99.199423,123.05852 C 96.331306,123.71723 97.167021,127.31851 97.65113,130.7296 C 98.482411,134.71452 99.084016,135.31314 102.15525,135.09297 C 103.58695,134.81734 105.50177,134.4059 104.97033,130.37772 L 102.9294,130.65922 C 103.15094,131.73399 103.39495,132.55819 102.22563,133.40392 C 101.2169,133.5339 100.77117,133.77076 100.11432,132.48902 L 99.058671,126.92925 C 98.855367,125.74378 99.242292,125.04233 100.1847,124.6068 C 101.21927,124.51316 101.6891,125.0199 102.0145,126.29585 z" id="path3253" style="fill: rgb(0, 95, 175); fill-opacity: 1; fill-rule: evenodd; stroke: rgb(0, 95, 175); stroke-width: 1px; stroke-linecap: butt; stroke-linejoin: miter; stroke-opacity: 1;"/>
    <path d="M 108.34842,133.40392 L 107.71503,121.29909 L 110.10785,120.6657 L 116.01951,130.65922 L 114.40084,131.71488 L 112.43029,128.8998 L 110.17822,129.74432 L 110.38936,132.70015 L 108.34842,133.40392 z M 109.61521,124.18454 L 109.82634,128.12565 L 112.00802,127.49226 L 109.61521,124.18454 z" id="path3255" style="fill: rgb(0, 95, 175); fill-opacity: 1; fill-rule: evenodd; stroke: rgb(0, 95, 175); stroke-width: 1px; stroke-linecap: butt; stroke-linejoin: miter; stroke-opacity: 1;"/>
  </g>
</svg>